<?xml version="1.0" encoding="utf-8"?>
<!-- Generator: Adobe Illustrator 23.0.4, SVG Export Plug-In . SVG Version: 6.00 Build 0)  -->
<svg version="1.1" id="Layer_1" xmlns="http://www.w3.org/2000/svg" xmlns:xlink="http://www.w3.org/1999/xlink" x="0px" y="0px"
	 viewBox="0 0 560 560" style="enable-background:new 0 0 560 560;" xml:space="preserve">
<style type="text/css">
	.st0{fill:#FFFFFF;}
	.st1{fill:#FFA69E;}
</style>
<g>
	<g>
		<path class="st0" d="M468.39,0H91.61C41.22,0,0,41.22,0,91.61v376.78C0,518.78,41.22,560,91.61,560h376.78
			c50.39,0,91.61-41.22,91.61-91.61V91.61C560,41.22,518.78,0,468.39,0z"/>
	</g>
	<g>
		<g>
			<path class="st1" d="M242.87,414.31L242.87,414.31c20.61,20.61,54.34,20.61,74.95,0L504.5,227.64
				c20.61-20.61,20.61-54.34,0-74.95l0,0c-20.61-20.61-54.34-20.61-74.95,0L242.87,339.36C222.26,359.97,222.26,393.7,242.87,414.31
				z"/>
			<path class="st1" d="M316.5,414.31L316.5,414.31c20.61-20.61,20.61-54.34,0-74.95l-73.86-73.86c-20.61-20.61-54.34-20.61-74.95,0
				l0,0c-20.61,20.61-20.61,54.34,0,74.95l73.86,73.86C262.16,434.93,295.89,434.93,316.5,414.31z"/>
		</g>
		<circle class="st1" cx="139.5" cy="228.5" r="98.5"/>
	</g>
</g>
</svg>
